<svg width="333" height="80" viewBox="0 0 333 80" fill="none" xmlns="http://www.w3.org/2000/svg">
<g clip-path="url(#clip0_108_20)">
<path d="M6.22553 39.9976L68.017 0H53.6812L4.41402 31.8947C2.48045 33.1428 1.10839 34.9515 0.439449 37.1211C-0.146483 39.003 -0.146483 40.997 0.439449 42.8838C1.11327 45.0533 2.48533 46.8572 4.41891 48.1102L50.7417 78.0937L53.6909 80H68.0267L8.63274 41.5528L6.23041 39.9976H6.22553Z" fill="white"/>
<path d="M121.854 37.1162C121.185 34.9515 119.809 33.1428 117.88 31.8898L68.7494 0.0926321L68.6078 0H54.2769L113.642 38.4277L116.063 39.9976L54.2769 79.9951H68.6127L117.88 48.1004C119.813 46.8475 121.185 45.0387 121.854 42.874C122.44 40.9921 122.44 38.9981 121.854 37.1162Z" fill="white"/>
<path d="M89 25H76.0837L34 51.9804L40.6429 56L89 25Z" fill="white"/>
<path d="M126.227 80.2323H111.891L93 68H107.336L126.227 80.2323Z" fill="white"/>
<path d="M153.954 51.181V25.7998H169.456V28.959H157.396V36.8913H168.26V39.9433H157.396V47.9828H169.456V51.1761H153.954V51.181Z" fill="white"/>
<path d="M172.762 42.6543C172.762 37.3889 175.819 33.5276 180.921 33.5276C183.558 33.5276 185.775 34.6879 186.932 36.7941V25.3516H190.203V51.191H187.249L186.966 48.0659C185.843 50.4159 183.519 51.6103 180.78 51.6103C175.785 51.6103 172.762 47.8904 172.762 42.6591V42.6543ZM186.893 42.547C186.893 39.0367 184.818 36.5064 181.444 36.5064C178.07 36.5064 176.097 39.0319 176.097 42.547C176.097 46.0621 178.065 48.6217 181.444 48.6217C184.823 48.6217 186.893 46.1304 186.893 42.547Z" fill="white"/>
<path d="M193.045 34.0146H196.453L199.3 42.9317C199.685 44.1944 200.037 45.4961 200.354 47.0026C200.638 45.4913 201.092 44.053 201.477 42.9317L204.358 34.0146H207.732L210.579 42.9317C210.862 43.7751 211.424 45.774 211.702 47.0026C211.985 45.6327 212.298 44.4382 212.791 42.9317L215.672 34.0146H219.119L213.25 51.1808H210.12L207.132 41.981C206.57 40.26 206.219 38.929 206.043 37.9783C205.867 38.8218 205.55 39.9431 204.92 42.0151L201.932 51.176H198.66L193.035 34.0098L193.045 34.0146Z" fill="white"/>
<path d="M220.359 46.4081C220.359 43.2488 222.718 41.2841 226.761 40.9672L232.176 40.5479V40.0555C232.176 37.179 230.452 36.16 228.133 36.16C225.354 36.16 223.772 37.3886 223.772 39.4607H220.887C220.887 35.8822 223.841 33.5273 228.269 33.5273C232.698 33.5273 235.408 35.7749 235.408 40.4065V51.1859H232.596L232.244 48.4119C231.365 50.3766 229.012 51.6052 226.233 51.6052C222.542 51.6052 220.359 49.5332 220.359 46.4081ZM232.21 43.7754V42.8637L227.815 43.2147C224.895 43.4975 223.704 44.6188 223.704 46.3057C223.704 48.1291 225.042 49.0457 227.185 49.0457C230.315 49.0457 232.215 47.0078 232.215 43.7803L232.21 43.7754Z" fill="white"/>
<path d="M249.822 36.8964H248.347C245.217 36.8964 243.284 38.793 243.284 42.0936V51.1862H239.978V34.0541H243.074L243.284 36.6527C243.987 34.8634 245.71 33.6689 248.064 33.6689C248.66 33.6689 249.153 33.7372 249.822 33.8786V36.8964Z" fill="white"/>
<path d="M251.155 42.6543C251.155 37.3889 254.211 33.5276 259.314 33.5276C261.951 33.5276 264.167 34.6879 265.325 36.7941V25.3516H268.596V51.191H265.642L265.359 48.0659C264.236 50.4159 261.912 51.6103 259.172 51.6103C254.182 51.6103 251.155 47.8904 251.155 42.6591V42.6543ZM265.29 42.547C265.29 39.0367 263.215 36.5064 259.841 36.5064C256.467 36.5064 254.495 39.0319 254.495 42.547C254.495 46.0621 256.462 48.6217 259.841 48.6217C263.22 48.6217 265.29 46.1304 265.29 42.547Z" fill="white"/>
<path d="M283.538 51.181V25.7998H293.137C298.586 25.7998 301.824 28.6763 301.824 33.42C301.824 36.9303 300.066 39.4557 296.902 40.4747L302.068 51.181H298.235L293.489 41.1426H286.985V51.181H283.538ZM286.98 38.0857H293.166C296.365 38.0857 298.196 36.3647 298.196 33.4541C298.196 30.5435 296.296 28.8908 293.132 28.8908H286.98V38.0906V38.0857Z" fill="white"/>
<path d="M305.754 49.1485C305.754 47.7786 306.916 46.6572 308.283 46.6572C309.65 46.6572 310.778 47.7786 310.778 49.1485C310.778 50.5185 309.616 51.6057 308.283 51.6057C306.95 51.6057 305.754 50.4844 305.754 49.1485Z" fill="white"/>
<path d="M310.183 25.7998H313.874L320.06 42.0202C320.622 43.4584 321.115 44.8966 321.642 46.7932C322.238 44.7943 322.839 43.1074 323.259 41.986L329.411 25.8047H332.995L323.43 51.1859H319.846L310.178 25.8047L310.183 25.7998Z" fill="white"/>
</g>
<defs>
<clipPath id="clip0_108_20">
<rect width="333" height="80" fill="white"/>
</clipPath>
</defs>
</svg>
